<mxfile host="app.diagrams.net" modified="2022-09-28T03:21:38.426Z" agent="5.0 (Macintosh; Intel Mac OS X 10_15_6) AppleWebKit/605.1.15 (KHTML, like Gecko) Version/15.6.1 Safari/605.1.15" etag="RppGhy82o1FPVAqRrwYs" version="20.3.1" type="github">
  <diagram id="F4gN84i8ZuaQyW_RZ56m" name="หน้า-1">
    <mxGraphModel dx="733" dy="581" grid="1" gridSize="10" guides="1" tooltips="1" connect="1" arrows="1" fold="1" page="1" pageScale="1" pageWidth="827" pageHeight="1169" math="0" shadow="0">
      <root>
        <mxCell id="0" />
        <mxCell id="1" parent="0" />
        <mxCell id="u_R_T92bsoZMOaNUJfA--16" style="edgeStyle=orthogonalEdgeStyle;rounded=0;orthogonalLoop=1;jettySize=auto;html=1;entryX=0.5;entryY=0;entryDx=0;entryDy=0;" edge="1" parent="1" source="u_R_T92bsoZMOaNUJfA--6" target="u_R_T92bsoZMOaNUJfA--11">
          <mxGeometry relative="1" as="geometry" />
        </mxCell>
        <mxCell id="u_R_T92bsoZMOaNUJfA--6" value="During to week&lt;br&gt;" style="rounded=0;whiteSpace=wrap;html=1;" vertex="1" parent="1">
          <mxGeometry x="70" y="200" width="130" height="70" as="geometry" />
        </mxCell>
        <mxCell id="u_R_T92bsoZMOaNUJfA--3" value="" style="edgeStyle=orthogonalEdgeStyle;rounded=0;orthogonalLoop=1;jettySize=auto;html=1;" edge="1" parent="1" source="u_R_T92bsoZMOaNUJfA--1" target="u_R_T92bsoZMOaNUJfA--2">
          <mxGeometry relative="1" as="geometry" />
        </mxCell>
        <mxCell id="u_R_T92bsoZMOaNUJfA--1" value="Start&lt;br&gt;" style="rounded=1;whiteSpace=wrap;html=1;" vertex="1" parent="1">
          <mxGeometry x="270" y="60" width="120" height="60" as="geometry" />
        </mxCell>
        <mxCell id="u_R_T92bsoZMOaNUJfA--5" style="edgeStyle=orthogonalEdgeStyle;rounded=0;orthogonalLoop=1;jettySize=auto;html=1;" edge="1" parent="1" source="u_R_T92bsoZMOaNUJfA--2" target="u_R_T92bsoZMOaNUJfA--4">
          <mxGeometry relative="1" as="geometry">
            <mxPoint x="470" y="235" as="targetPoint" />
          </mxGeometry>
        </mxCell>
        <mxCell id="u_R_T92bsoZMOaNUJfA--9" value="" style="edgeStyle=orthogonalEdgeStyle;rounded=0;orthogonalLoop=1;jettySize=auto;html=1;" edge="1" parent="1" source="u_R_T92bsoZMOaNUJfA--2" target="u_R_T92bsoZMOaNUJfA--6">
          <mxGeometry relative="1" as="geometry" />
        </mxCell>
        <mxCell id="u_R_T92bsoZMOaNUJfA--2" value="Temperature &amp;lt;10°" style="rhombus;whiteSpace=wrap;html=1;" vertex="1" parent="1">
          <mxGeometry x="255" y="180" width="150" height="110" as="geometry" />
        </mxCell>
        <mxCell id="u_R_T92bsoZMOaNUJfA--4" value="Switch on the boiler&lt;br&gt;" style="rounded=0;whiteSpace=wrap;html=1;" vertex="1" parent="1">
          <mxGeometry x="480" y="200" width="130" height="70" as="geometry" />
        </mxCell>
        <mxCell id="u_R_T92bsoZMOaNUJfA--8" value="Yes&lt;br&gt;" style="text;html=1;align=center;verticalAlign=middle;resizable=0;points=[];autosize=1;strokeColor=none;fillColor=none;" vertex="1" parent="1">
          <mxGeometry x="414" y="210" width="40" height="30" as="geometry" />
        </mxCell>
        <mxCell id="u_R_T92bsoZMOaNUJfA--10" value="No&lt;br&gt;" style="text;html=1;align=center;verticalAlign=middle;resizable=0;points=[];autosize=1;strokeColor=none;fillColor=none;" vertex="1" parent="1">
          <mxGeometry x="215" y="200" width="40" height="30" as="geometry" />
        </mxCell>
        <mxCell id="u_R_T92bsoZMOaNUJfA--17" style="edgeStyle=orthogonalEdgeStyle;rounded=0;orthogonalLoop=1;jettySize=auto;html=1;" edge="1" parent="1" source="u_R_T92bsoZMOaNUJfA--11">
          <mxGeometry relative="1" as="geometry">
            <mxPoint x="135" y="470.0000000000001" as="targetPoint" />
          </mxGeometry>
        </mxCell>
        <mxCell id="u_R_T92bsoZMOaNUJfA--11" value="If time= 6:00-8:30 17:30-22:00&amp;nbsp;" style="rounded=0;whiteSpace=wrap;html=1;" vertex="1" parent="1">
          <mxGeometry x="67.5" y="340" width="135" height="70" as="geometry" />
        </mxCell>
        <mxCell id="u_R_T92bsoZMOaNUJfA--18" value="If temperature &amp;lt;20°" style="rhombus;whiteSpace=wrap;html=1;" vertex="1" parent="1">
          <mxGeometry x="82.5" y="470" width="105" height="90" as="geometry" />
        </mxCell>
      </root>
    </mxGraphModel>
  </diagram>
</mxfile>
